<svg width="136" height="27" viewBox="0 0 136 27" fill="none" xmlns="http://www.w3.org/2000/svg">
<path d="M7.5 24.5L1 17.5L7.5 15L12 20L17.5 15L12 7.5V12.5L1 10L5.5 4.5" stroke="white" stroke-width="2" stroke-linecap="round" stroke-linejoin="round"/>
<path d="M35.196 21.176C33.656 21.176 32.2627 20.8387 31.016 20.164C29.784 19.4747 28.816 18.536 28.112 17.348C27.408 16.1453 27.056 14.796 27.056 13.3C27.056 11.804 27.408 10.462 28.112 9.274C28.816 8.07133 29.7913 7.13267 31.038 6.458C32.2847 5.76867 33.678 5.424 35.218 5.424C36.4207 5.424 37.5207 5.62933 38.518 6.04C39.5153 6.436 40.366 7.03 41.07 7.822L39.64 9.208C38.4813 7.99067 37.0367 7.382 35.306 7.382C34.162 7.382 33.128 7.63867 32.204 8.152C31.28 8.66533 30.554 9.37667 30.026 10.286C29.5127 11.1807 29.256 12.1853 29.256 13.3C29.256 14.4147 29.5127 15.4267 30.026 16.336C30.554 17.2307 31.28 17.9347 32.204 18.448C33.128 18.9613 34.162 19.218 35.306 19.218C37.022 19.218 38.4667 18.602 39.64 17.37L41.07 18.756C40.366 19.548 39.508 20.1493 38.496 20.56C37.4987 20.9707 36.3987 21.176 35.196 21.176ZM43.9004 9.34H46.0124V21H43.9004V9.34ZM44.9564 7.096C44.5458 7.096 44.2011 6.964 43.9224 6.7C43.6584 6.436 43.5264 6.11333 43.5264 5.732C43.5264 5.35067 43.6584 5.028 43.9224 4.764C44.2011 4.48533 44.5458 4.346 44.9564 4.346C45.3671 4.346 45.7044 4.478 45.9684 4.742C46.2471 4.99133 46.3864 5.30667 46.3864 5.688C46.3864 6.084 46.2471 6.42133 45.9684 6.7C45.7044 6.964 45.3671 7.096 44.9564 7.096ZM56.601 20.318C56.293 20.582 55.9116 20.7873 55.457 20.934C55.0023 21.066 54.533 21.132 54.049 21.132C52.8756 21.132 51.9663 20.8167 51.321 20.186C50.6756 19.5553 50.353 18.6533 50.353 17.48V11.078H48.373V9.34H50.353V6.788H52.465V9.34H55.809V11.078H52.465V17.392C52.465 18.0227 52.619 18.5067 52.927 18.844C53.2496 19.1813 53.7043 19.35 54.291 19.35C54.9363 19.35 55.4863 19.1667 55.941 18.8L56.601 20.318ZM69.2575 9.34L63.6035 22.166C63.1048 23.354 62.5182 24.19 61.8435 24.674C61.1835 25.158 60.3842 25.4 59.4455 25.4C58.8735 25.4 58.3162 25.3047 57.7735 25.114C57.2455 24.938 56.8055 24.674 56.4535 24.322L57.3555 22.738C57.9568 23.31 58.6535 23.596 59.4455 23.596C59.9588 23.596 60.3842 23.4567 60.7215 23.178C61.0735 22.914 61.3888 22.452 61.6675 21.792L62.0415 20.978L56.8935 9.34H59.0935L63.1635 18.668L67.1895 9.34H69.2575ZM82.0562 13.212H84.1682V19.218C83.4055 19.8487 82.5182 20.3327 81.5062 20.67C80.4942 21.0073 79.4382 21.176 78.3382 21.176C76.7835 21.176 75.3828 20.8387 74.1362 20.164C72.8895 19.4747 71.9068 18.536 71.1882 17.348C70.4842 16.1453 70.1322 14.796 70.1322 13.3C70.1322 11.804 70.4842 10.4547 71.1882 9.252C71.9068 8.04933 72.8895 7.11067 74.1362 6.436C75.3975 5.76133 76.8128 5.424 78.3822 5.424C79.6142 5.424 80.7288 5.62933 81.7262 6.04C82.7382 6.436 83.5962 7.02267 84.3002 7.8L82.9362 9.164C81.7042 7.976 80.2155 7.382 78.4702 7.382C77.2968 7.382 76.2408 7.63867 75.3022 8.152C74.3782 8.65067 73.6522 9.35467 73.1242 10.264C72.5962 11.1587 72.3322 12.1707 72.3322 13.3C72.3322 14.4147 72.5962 15.4267 73.1242 16.336C73.6522 17.2307 74.3782 17.9347 75.3022 18.448C76.2408 18.9613 77.2895 19.218 78.4482 19.218C79.8268 19.218 81.0295 18.888 82.0562 18.228V13.212ZM98.9403 9.34V21H96.9383V19.24C96.513 19.8413 95.9483 20.3107 95.2443 20.648C94.555 20.9707 93.7996 21.132 92.9783 21.132C91.4236 21.132 90.199 20.7067 89.3043 19.856C88.4096 18.9907 87.9623 17.722 87.9623 16.05V9.34H90.0743V15.808C90.0743 16.9373 90.3456 17.7953 90.8883 18.382C91.431 18.954 92.2083 19.24 93.2203 19.24C94.335 19.24 95.215 18.9027 95.8603 18.228C96.5056 17.5533 96.8283 16.6 96.8283 15.368V9.34H98.9403ZM102.961 9.34H105.073V21H102.961V9.34ZM104.017 7.096C103.606 7.096 103.262 6.964 102.983 6.7C102.719 6.436 102.587 6.11333 102.587 5.732C102.587 5.35067 102.719 5.028 102.983 4.764C103.262 4.48533 103.606 4.346 104.017 4.346C104.428 4.346 104.765 4.478 105.029 4.742C105.308 4.99133 105.447 5.30667 105.447 5.688C105.447 6.084 105.308 6.42133 105.029 6.7C104.765 6.964 104.428 7.096 104.017 7.096ZM120.106 4.676V21H118.082V19.152C117.612 19.7973 117.018 20.2887 116.3 20.626C115.581 20.9633 114.789 21.132 113.924 21.132C112.794 21.132 111.782 20.8827 110.888 20.384C109.993 19.8853 109.289 19.1887 108.776 18.294C108.277 17.3847 108.028 16.3433 108.028 15.17C108.028 13.9967 108.277 12.9627 108.776 12.068C109.289 11.1733 109.993 10.4767 110.888 9.978C111.782 9.47933 112.794 9.23 113.924 9.23C114.76 9.23 115.53 9.39133 116.234 9.714C116.938 10.022 117.524 10.484 117.994 11.1V4.676H120.106ZM114.1 19.284C114.833 19.284 115.5 19.1153 116.102 18.778C116.703 18.426 117.172 17.942 117.51 17.326C117.847 16.6953 118.016 15.9767 118.016 15.17C118.016 14.3633 117.847 13.652 117.51 13.036C117.172 12.4053 116.703 11.9213 116.102 11.584C115.5 11.2467 114.833 11.078 114.1 11.078C113.352 11.078 112.677 11.2467 112.076 11.584C111.489 11.9213 111.02 12.4053 110.668 13.036C110.33 13.652 110.162 14.3633 110.162 15.17C110.162 15.9767 110.33 16.6953 110.668 17.326C111.02 17.942 111.489 18.426 112.076 18.778C112.677 19.1153 113.352 19.284 114.1 19.284ZM134.64 15.236C134.64 15.3973 134.625 15.61 134.596 15.874H125.136C125.268 16.9007 125.715 17.7293 126.478 18.36C127.255 18.976 128.216 19.284 129.36 19.284C130.753 19.284 131.875 18.8147 132.726 17.876L133.892 19.24C133.364 19.856 132.704 20.3253 131.912 20.648C131.134 20.9707 130.262 21.132 129.294 21.132C128.062 21.132 126.969 20.8827 126.016 20.384C125.062 19.8707 124.322 19.1593 123.794 18.25C123.28 17.3407 123.024 16.314 123.024 15.17C123.024 14.0407 123.273 13.0213 123.772 12.112C124.285 11.2027 124.982 10.4987 125.862 10C126.756 9.48667 127.761 9.23 128.876 9.23C129.99 9.23 130.98 9.48667 131.846 10C132.726 10.4987 133.408 11.2027 133.892 12.112C134.39 13.0213 134.64 14.0627 134.64 15.236ZM128.876 11.012C127.864 11.012 127.013 11.32 126.324 11.936C125.649 12.552 125.253 13.3587 125.136 14.356H132.616C132.498 13.3733 132.095 12.574 131.406 11.958C130.731 11.3273 129.888 11.012 128.876 11.012Z" fill="white"/>
</svg>
